<svg t="1725363440361" class="icon" viewBox="0 0 1024 1024" version="1.1"
  xmlns="http://www.w3.org/2000/svg" p-id="8767" width="200" height="200">
  <path
    d="M633.472 228.565333h-40.533333v-40.533333h40.533333m-202.496 40.533333h-40.490667v-40.533333h40.533334m223.914666-74.453333l53.034667-53.077334a20.778667 20.778667 0 0 0 0-28.757333 20.778667 20.778667 0 0 0-28.757333 0L619.306667 91.733333a244.650667 244.650667 0 0 0-107.349334-25.130666c-38.826667 0-75.306667 9.344-107.690666 25.514666L343.893333 31.744a20.309333 20.309333 0 0 0-28.373333 0 20.053333 20.053333 0 0 0 0 28.757333L368.64 113.578667C308.266667 158.122667 269.013333 228.565333 269.013333 309.546667h485.973334c0-80.981333-40.533333-151.850667-100.053334-195.968m201.301334 236.501333a60.757333 60.757333 0 0 0-60.757334 60.714667v283.477333a60.757333 60.757333 0 0 0 60.757334 60.757333 60.757333 60.757333 0 0 0 60.714666-60.757333V410.794667a60.757333 60.757333 0 0 0-60.714666-60.714667m-688.469334 0a60.757333 60.757333 0 0 0-60.757333 60.714667v283.477333a60.757333 60.757333 0 0 0 60.757333 60.757333 60.757333 60.757333 0 0 0 60.714667-60.757333V410.794667a60.757333 60.757333 0 0 0-60.714667-60.714667m101.205334 404.949333a40.533333 40.533333 0 0 0 40.533333 40.533334h40.490667v141.696a60.757333 60.757333 0 0 0 60.714666 60.757333 60.757333 60.757333 0 0 0 60.757334-60.757333v-141.738667h80.981333v141.738667a60.757333 60.757333 0 0 0 60.757333 60.757333 60.757333 60.757333 0 0 0 60.757334-60.757333v-141.738667h40.490666a40.533333 40.533333 0 0 0 40.533334-40.490667V350.08H268.970667z"
    fill="#8BC34A" p-id="8768"></path>
</svg>