<svg t="1725363072760" class="icon" viewBox="0 0 1024 1024" version="1.1"
  xmlns="http://www.w3.org/2000/svg" p-id="18478" width="200" height="200">
  <path
    d="M512 73.142857q119.428571 0 220.285714 58.857143t159.714286 159.714286 58.857143 220.285714-58.857143 220.285714-159.714286 159.714286-220.285714 58.857143-220.285714-58.857143-159.714286-159.714286-58.857143-220.285714 58.857143-220.285714 159.714286-159.714286 220.285714-58.857143zm156.571429 297.714286q-1.142857 0.571429-5.428571 5.428571t-7.714286 5.428571q1.142857 0 2.571429-2.857143t2.857143-6.285714 2-4q3.428571-4 12.571429-8.571429 8-3.428571 29.714286-6.857143 19.428571-4.571429 29.142857 6.285714-1.142857-1.142857 5.428571-7.428571t8.285714-6.857143q1.714286-1.142857 8.571429-2.571429t8.571429-4.285714l1.142857-12.571429q-6.857143 0.571429-10-4t-3.714286-12q0 1.142857-3.428571 4.571429 0-4-2.571429-4.571429t-6.571429 0.571429-5.142857 0.571429q-5.714286-1.714286-8.571429-4.285714t-4.571429-9.428571-2.285714-8.571429q-1.142857-2.857143-5.428571-6t-5.428571-6q-0.571429-1.142857-1.428571-3.142857t-1.714286-3.714286-2.285714-3.142857-3.142857-1.428571-4 2.857143-4.285714 5.714286-2.571429 2.857143q-1.714286-1.142857-3.428571-0.857143t-2.571429 0.571429-2.571429 1.714286-2.857143 2q-1.714286 1.142857-4.857143 1.714286t-4.857143 1.142857q8.571429-2.857143-0.571429-6.285714-5.714286-2.285714-9.142857-1.714286 5.142857-2.285714 4.285714-6.857143t-4.857143-8l2.857143 0q-0.571429-2.285714-4.857143-4.857143t-10-4.857143-7.428571-3.428571q-4.571429-2.857143-19.428571-5.428571t-18.857143 2.857143q-2.857143 3.428571-2.571429 6t2.285714 8 2 7.142857q0.571429 3.428571-3.142857 7.428571t-3.714286 6.857143q0 4 8 8.857143t5.714286 12.285714q-1.714286 4.571429-9.142857 9.142857t-9.142857 6.857143q-2.857143 4.571429-0.857143 10.571429t6 9.428571q1.142857 1.142857 0.857143 2.285714t-2 2.571429-3.142857 2.285714-3.714286 2l-1.714286 1.142857q-6.285714 2.857143-11.714286-3.428571t-7.714286-14.857143q-4-14.285714-9.142857-17.142857-13.142857-4.571429-16.571429 0.571429-2.857143-7.428571-23.428571-14.857143-14.285714-5.142857-33.142857-2.285714 3.428571-0.571429 0-8.571429-4-8.571429-10.857143-6.857143 1.714286-3.428571 2.285714-10t0.571429-7.714286q1.714286-7.428571 6.857143-13.142857 0.571429-0.571429 4-4.857143t5.428571-7.714286 2.857143-3.428571q20 2.285714 28.571429-6.285714 2.857143-2.857143 6.571429-9.714286t6-9.714286q5.142857-3.428571 8-3.142857t8.285714 3.142857 8.285714 2.857143q8 0.571429 8.857143-6.285714t-4.285714-11.428571q6.857143 0.571429 1.714286-9.714286-2.857143-4-4.571429-5.142857-6.857143-2.285714-15.428571 2.857143-4.571429 2.285714 1.142857 4.571429-0.571429-0.571429-5.428571 6t-9.428571 10-9.142857-2.857143q-0.571429-0.571429-3.142857-7.714286t-5.428571-7.714286q-4.571429 0-9.142857 8.571429 1.714286-4.571429-6.285714-8.571429t-13.714286-4.571429q10.857143-6.857143-4.571429-15.428571-4-2.285714-11.714286-2.857143t-11.142857 2.285714q-2.857143 4-3.142857 6.571429t2.857143 4.571429 6 3.142857 6.571429 2.285714 4.857143 1.714286q8 5.714286 4.571429 8-1.142857 0.571429-4.857143 2t-6.571429 2.571429-3.428571 2.285714q-1.714286 2.285714 0 8t-1.142857 8q-2.857143-2.857143-5.142857-10t-4-9.428571q4 5.142857-14.285714 3.428571l-5.714286-0.571429q-2.285714 0-9.142857 1.142857t-11.714286 0.571429-7.714286-4.571429q-2.285714-4.571429 0-11.428571 0.571429-2.285714 2.285714-1.142857-2.285714-1.714286-6.285714-5.428571t-5.714286-4.857143q-26.285714 8.571429-53.714286 23.428571 3.428571 0.571429 6.857143-0.571429 2.857143-1.142857 7.428571-3.714286t5.714286-3.142857q19.428571-8 24-4l2.857143-2.857143q8 9.142857 11.428571 14.285714-4-2.285714-17.142857-0.571429-11.428571 3.428571-12.571429 6.857143 4 6.857143 2.857143 10.285714-2.285714-1.714286-6.571429-5.714286t-8.285714-6.285714-8.571429-2.857143q-9.142857 0-12.571429 0.571429-83.428571 45.714286-134.285714 126.857143 4 4 6.857143 4.571429 2.285714 0.571429 2.857143 5.142857t1.428571 6.285714 6.571429-1.714286q5.142857 4.571429 1.714286 10.857143 0.571429-0.571429 25.142857 15.428571 10.857143 9.714286 12 12 1.714286 6.285714-5.714286 10.285714-0.571429-1.142857-5.142857-5.142857t-5.142857-2.285714q-1.714286 2.857143 2.857143 10.571429t6 7.142857q-4 0-5.428571 9.142857t-1.428571 20.285714-0.571429 13.428571l1.142857 0.571429q-1.714286 6.857143 3.142857 19.714286t12.285714 11.142857q-7.428571 1.714286 11.428571 24.571429 3.428571 4.571429 4.571429 5.142857 1.714286 1.142857 6.857143 4.285714t8.571429 5.714286 5.714286 6q2.285714 2.857143 5.714286 12.857143t8 13.428571q-1.142857 3.428571 5.428571 11.428571t6 13.142857q-0.571429 0-1.428571 0.571429t-1.428571 0.571429q1.714286 4 8.857143 8t8.857143 7.428571q0.571429 1.714286 1.142857 5.714286t1.714286 6.285714 4.571429 1.142857q1.142857-11.428571-13.714286-35.428571-8.571429-14.285714-9.714286-16.571429-1.714286-2.857143-3.142857-8.857143t-2.571429-8.285714q1.142857 0 3.428571 0.857143t4.857143 2 4.285714 2.285714 1.142857 1.714286q-1.714286 4 1.142857 10t6.857143 10.571429 9.714286 10.857143 6.857143 7.428571q3.428571 3.428571 8 11.142857t0 7.714286q5.142857 0 11.428571 5.714286t9.714286 11.428571q2.857143 4.571429 4.571429 14.857143t2.857143 13.714286q1.142857 4 4.857143 7.714286t7.142857 5.428571l9.142857 4.571429 7.428571 4q2.857143 1.142857 10.571429 6t12.285714 6.571429q5.714286 2.285714 9.142857 2.285714t8.285714-1.428571 7.714286-2q8.571429-1.142857 16.571429 8.571429t12 12q20.571429 10.857143 31.428571 6.285714-1.142857 0.571429 2.857143 4.285714t4.571429 8.857143 5.142857 8.285714 3.142857 4.857143q2.857143 3.428571 10.285714 8.571429t10.285714 8.571429q3.428571-2.285714 4-5.142857-1.714286 4.571429 4 11.428571t10.285714 5.714286q8-1.714286 8-18.285714-17.714286 8.571429-28-10.285714 0-0.571429-1.428571-3.142857t-2.285714-4.857143-1.428571-4.857143 0-4.285714 2.857143-1.714286q5.142857 0 5.714286-2t-1.142857-7.142857-2.285714-7.428571q-0.571429-4.571429-6.285714-11.428571t-6.857143-8.571429q-2.857143 5.142857-9.142857 4.571429t-9.142857-5.142857q0 0.571429-0.857143 3.142857t-0.857143 3.714286q-7.428571 0-8.571429-0.571429 0.571429-1.714286 1.428571-10t2-12.857143q0.571429-2.285714 3.142857-6.857143t4.285714-8.285714 2.285714-7.142857-2.571429-5.428571-10-1.428571q-10.857143 0.571429-14.857143 11.428571-0.571429 1.714286-1.714286 6t-2.857143 6.571429-5.142857 4q-4 1.714286-13.714286 1.142857t-13.714286-2.857143q-7.428571-4.571429-12.857143-16.571429t-5.428571-21.142857q0-5.714286 1.428571-15.142857t1.714286-14.285714-3.142857-14q1.714286-1.142857 5.142857-5.428571t5.714286-6q1.142857-0.571429 2.571429-0.857143t2.571429 0 2.285714-0.857143 1.714286-3.428571q-0.571429-0.571429-2.285714-1.714286-1.714286-1.714286-2.285714-1.714286 4 1.714286 16.285714-0.857143t15.714286 0.857143q8.571429 6.285714 12.571429-1.142857 0-0.571429-1.428571-5.428571t2.857143-7.714286q2.857143 15.428571 16.571429 5.142857 1.714286 1.714286 8.857143 2.857143t10 2.857143q1.714286 1.142857 4 3.142857t3.142857 2.571429 2.857143 2.857143 4.857143-3.714286q5.714286 8 6.857143 13.714286 6.285714 22.857143 10.857143 25.142857 4 1.714286 6.285714 1.142857t2.571429-5.428571 0-8-0.857143-7.142857l-0.571429-4.571429 0-10.285714-0.571429-4.571429q-8.571429-1.714286-10.571429-6.857143t0.857143-10.571429 8.571429-10.571429q0.571429-0.571429 4.571429-2t8.857143-3.714286 7.142857-4.571429q12-10.857143 8.571429-20 4 0 6.285714-5.142857-0.571429 0-2.857143-1.714286t-4.285714-2.857143-2.571429-1.142857q5.142857-2.857143 1.142857-9.142857 2.857143-1.714286 4.285714-6.285714t4.285714-5.714286q5.142857 6.857143 12 1.142857 4-4.571429 0.571429-9.142857 2.857143-4 11.714286-6t10.571429-5.428571q4 1.142857 4.571429-1.142857t0.571429-6.857143 1.714286-6.857143q2.285714-2.857143 8.571429-5.142857t7.428571-2.857143l9.714286-6.285714q1.714286-2.285714 0-2.285714 10.285714 1.142857 17.714286-6.285714 5.714286-6.285714-3.428571-11.428571 1.714286-3.428571-1.714286-5.428571t-8.571429-3.142857q1.714286-0.571429 6.571429 2.857143t6-0.857143q8.571429-5.714286-4-9.142857-9.714286-2.857143-24.571429 6.857143zm-93.142857 501.142857q117.714286-20.571429 200.571429-108-1.714286-1.714286-7.142857-2.571429t-7.142857-2q-10.285714-4-13.714286-4.571429 0.571429-4-1.428571-7.428571t-4.571429-5.142857-7.142857-4.571429-6.285714-4q-1.142857-1.142857-4-3.428571t-4-3.142857-4.285714-2.571429-4.857143-1.142857-5.714286 0.571429l-1.714286 0.571429q-1.714286 0.571429-3.142857 1.428571t-3.142857 1.714286-2.285714 1.714286 0 1.428571q-12-9.714286-20.571429-12.571429-2.857143-0.571429-6.285714-3.142857t-6-4-5.714286-0.857143-6.571429 4q-2.857143 2.857143-3.428571 8.571429t-1.142857 7.428571q-4-2.857143 0-10t1.142857-10.571429q-1.714286-3.428571-6-2.571429t-6.857143 2.571429-6.571429 4.857143-5.142857 3.714286-4.857143 3.142857-4.857143 4.285714q-1.714286 2.285714-3.428571 6.857143t-2.857143 6.285714q-1.142857-2.285714-6.571429-3.714286t-5.428571-3.142857q1.142857 5.714286 2.285714 20t2.857143 21.714286q4 17.714286-6.857143 27.428571-15.428571 14.285714-16.571429 22.857143-2.285714 12.571429 6.857143 14.857143 0 4-4.571429 11.714286t-4 12.285714q0 3.428571 1.142857 9.142857z"
    p-id="18479"></path>
</svg>